<?xml version="1.0" encoding="UTF-8" standalone="no"?><!-- Generator: Gravit.io --><svg xmlns="http://www.w3.org/2000/svg" xmlns:xlink="http://www.w3.org/1999/xlink" style="isolation:isolate" viewBox="583.182 488.485 920 920" width="920pt" height="920pt"><defs><clipPath id="_clipPath_xgOSBBP7HZD2lYPdtqurjPNf4mVYzvUN"><rect x="583.182" y="488.485" width="920" height="920"/></clipPath></defs><g clip-path="url(#_clipPath_xgOSBBP7HZD2lYPdtqurjPNf4mVYzvUN)"><circle vector-effect="non-scaling-stroke" cx="1043.1818181818182" cy="948.4848484848485" r="459.99999999999983" fill="rgb(194,228,237)"/><g><g><g><path d=" M 1141.799 917.064 C 1140.842 920.499 1137.479 922.771 1133.802 922.757 L 974.856 922.757 L 967.457 922.757 C 951.419 922.702 938.49 909.962 938.55 895.142 C 938.625 880.322 951.673 868.362 967.712 868.417 C 970.133 868.431 972.614 868.759 974.856 869.279 L 1133.802 907.294 L 1135.895 907.8 C 1140.289 908.854 1142.935 913 1141.799 917.064 Z " fill-rule="evenodd" fill="rgb(50,50,50)"/><path d=" M 1043.182 540 C 944.128 540 858.572 640.168 851.651 734.891 L 818.977 977.895 L 1267.386 977.895 L 1234.712 734.891 C 1227.792 640.168 1142.235 540 1043.182 540 Z " fill-rule="evenodd" fill="rgb(80,60,29)"/><path d=" M 1132.864 713.334 L 1132.864 713.334 L 1177.705 654.546 L 1088.023 683.94 L 1132.864 625.153 L 1073.076 639.85 L 1088.023 581.049 L 1043.182 639.85 L 998.341 581.049 L 1013.288 639.85 L 953.5 625.153 L 998.341 683.94 L 908.659 654.546 L 953.5 713.334 C 913.397 705.452 875.073 733.176 870.783 773.175 L 848.871 977.891 L 1043.182 977.891 L 1237.492 977.891 L 1215.58 773.175 C 1211.29 733.176 1172.966 705.452 1132.864 713.334 Z " fill-rule="evenodd" fill="rgb(165,125,82)"/><path d=" M 1028.235 841.053 C 971.72 841.053 946.027 895.789 946.027 895.789 L 1140.337 895.789 C 1140.337 895.789 1118.843 841.053 1058.129 841.053 L 1043.182 854.737 L 1028.235 841.053 Z " fill-rule="evenodd" fill="rgb(140,98,57)"/><mask id="_mask_7KCZn05rFHvn3VV0BvkZxNiGxopfpaRC" x="-200%" y="-200%" width="400%" height="400%"><rect x="-200%" y="-200%" width="400%" height="400%" style="fill:white;"/><line x1="1043.182" y1="827.368" x2="1043.182" y2="895.789" fill="black" stroke="none"/></mask><line x1="1043.182" y1="827.368" x2="1043.182" y2="895.789" mask="url(#_mask_7KCZn05rFHvn3VV0BvkZxNiGxopfpaRC)" vector-effect="non-scaling-stroke" stroke-width="13.416" stroke="rgb(165,125,82)" stroke-linejoin="miter" stroke-linecap="round" stroke-miterlimit="4"/><path d=" M 1043.182 810.527 C 1066.036 810.527 1084.57 820.421 1084.57 832.627 C 1084.57 834.037 1084.271 835.405 1083.793 836.733 C 1081.85 836.171 1079.817 835.788 1077.679 835.788 C 1066.753 835.788 1057.92 843.547 1057.127 853.359 C 1052.748 854.207 1048.099 854.741 1043.182 854.741 C 1038.264 854.741 1033.616 854.207 1029.236 853.359 C 1028.444 843.547 1019.61 835.788 1008.684 835.788 C 1006.547 835.788 1004.514 836.171 1002.556 836.733 C 1002.093 835.405 1001.794 834.037 1001.794 832.627 C 1001.794 820.421 1020.328 810.527 1043.182 810.527 Z " fill-rule="evenodd" fill="rgb(50,50,50)"/><path d=" M 923.606 964.211 L 953.5 1032.632 L 983.394 991.579 L 1013.288 1060 L 1043.182 991.579 L 1073.076 1060 L 1102.97 991.579 L 1132.864 1032.632 L 1162.758 964.211 L 923.606 964.211 Z " fill-rule="evenodd" fill="rgb(165,125,82)"/><path d=" M 1073.076 772.933 C 1073.076 787.876 1086.319 800 1102.641 800 L 1162.758 800 C 1162.758 800 1133.85 745.865 1102.641 745.865 C 1086.827 745.865 1073.076 757.989 1073.076 772.933 Z " fill-rule="evenodd" fill="rgb(80,60,29)"/><path d=" M 1013.288 772.933 C 1013.288 787.876 1000.045 800 983.723 800 L 923.606 800 C 923.606 800 952.514 745.865 983.723 745.865 C 999.537 745.865 1013.288 757.989 1013.288 772.933 Z " fill-rule="evenodd" fill="rgb(80,60,29)"/><path d=" M 1102.97 762.37 C 1096.767 762.37 1091.759 766.954 1091.759 772.633 C 1091.759 778.312 1096.767 782.896 1102.97 782.896 C 1109.173 782.896 1114.18 778.312 1114.18 772.633 C 1114.18 766.954 1109.173 762.37 1102.97 762.37 Z " fill-rule="evenodd" fill="rgb(255,255,255)"/><path d=" M 983.394 762.37 C 977.191 762.37 972.184 766.954 972.184 772.633 C 972.184 778.312 977.191 782.896 983.394 782.896 C 989.597 782.896 994.604 778.312 994.604 772.633 C 994.604 766.954 989.597 762.37 983.394 762.37 Z " fill-rule="evenodd" fill="rgb(255,255,255)"/><path d=" M 1125.39 923.159 L 960.973 923.159 C 948.642 923.159 938.553 913.922 938.553 902.633 C 938.553 891.343 948.642 882.107 960.973 882.107 L 1125.39 882.107 C 1137.721 882.107 1147.811 891.343 1147.811 902.633 L 1147.811 902.633 C 1147.811 913.922 1137.721 923.159 1125.39 923.159 Z " fill-rule="evenodd" fill="rgb(50,50,50)"/><path d=" M 983.394 923.158 L 998.341 895.789 L 1013.288 923.158 L 983.394 923.158 Z " fill-rule="evenodd" fill="rgb(255,255,255)"/><path d=" M 1073.076 923.158 L 1088.023 895.789 L 1102.97 923.158 L 1073.076 923.158 Z " fill-rule="evenodd" fill="rgb(255,255,255)"/><path d=" M 1132.864 882.105 L 1117.917 909.474 L 1102.97 882.105 L 1132.864 882.105 Z " fill-rule="evenodd" fill="rgb(255,255,255)"/><path d=" M 983.394 882.105 L 968.447 909.474 L 953.5 882.105 L 983.394 882.105 Z " fill-rule="evenodd" fill="rgb(255,255,255)"/></g></g></g><text transform="matrix(1,0,0,1,741.622,1140.88)" style="font-family:'LLPixel';font-weight:400;font-size:80px;font-style:normal;fill:#000000;stroke:none;">CONGRATS ON</text><text transform="matrix(1,0,0,1,754.942,1237.76)" style="font-family:'LLPixel';font-weight:400;font-size:80px;font-style:normal;fill:#000000;stroke:none;">4 STRIKES IN A </text><text transform="matrix(1,0,0,1,893.222,1334.64)" style="font-family:'LLPixel';font-weight:400;font-size:80px;font-style:normal;fill:#000000;stroke:none;">ROW!!!</text></g></svg>