<?xml version="1.0" encoding="UTF-8" standalone="no"?><!-- Generator: Gravit.io --><svg xmlns="http://www.w3.org/2000/svg" xmlns:xlink="http://www.w3.org/1999/xlink" style="isolation:isolate" viewBox="810 340 920 920" width="920pt" height="920pt"><defs><clipPath id="_clipPath_dcltw1WqGMBunr0TmpjokzqFooGRejcp"><rect x="810" y="340" width="920" height="920"/></clipPath></defs><g clip-path="url(#_clipPath_dcltw1WqGMBunr0TmpjokzqFooGRejcp)"><circle vector-effect="non-scaling-stroke" cx="1270" cy="800" r="459.99999999999994" fill="rgb(194,228,237)"/><text transform="matrix(1,0,0,1,925.6,1010.88)" style="font-family:'LLPixel';font-weight:400;font-size:80px;font-style:normal;fill:#000000;stroke:none;">TEETH AS WHITE </text><text transform="matrix(1,0,0,1,1041.56,1107.76)" style="font-family:'LLPixel';font-weight:400;font-size:80px;font-style:normal;fill:#000000;stroke:none;">AS A CLONE </text><text transform="matrix(1,0,0,1,1051.12,1204.64)" style="font-family:'LLPixel';font-weight:400;font-size:80px;font-style:normal;fill:#000000;stroke:none;">TROOPER</text><g><g><g><path d=" M 1474.517 660.057 L 1474.517 576.038 L 1272.872 576.038 L 1071.226 576.038 L 1071.226 660.057 C 1071.226 660.057 986.687 717.677 1088.299 823.171 C 1088.198 824.818 1088.03 826.431 1088.03 828.094 C 1088.03 874.49 1129.401 912.113 1180.451 912.113 C 1231.501 912.113 1272.872 874.49 1272.872 828.094 C 1272.872 874.49 1314.242 912.113 1365.292 912.113 C 1416.342 912.113 1457.713 874.49 1457.713 828.094 C 1457.713 826.431 1457.545 824.818 1457.444 823.171 C 1559.057 717.677 1474.517 660.057 1474.517 660.057 Z " fill-rule="evenodd" fill="rgb(236,236,236)"/><path d=" M 1348.767 408 L 1196.979 408 C 1127.529 408 1071.22 464.293 1071.22 533.743 L 1071.22 542.43 L 1474.51 542.43 L 1474.51 533.743 C 1474.51 464.293 1418.217 408 1348.767 408 Z " fill-rule="evenodd" fill="rgb(236,236,236)"/><path d=" M 1138.441 660.057 C 1104.834 660.057 1104.834 592.841 1104.834 592.841 L 1239.264 592.841 C 1239.264 592.841 1172.049 660.057 1138.441 660.057 Z " fill-rule="evenodd" fill="rgb(50,50,50)"/><path d=" M 1365.292 878.506 C 1351.379 878.506 1340.087 867.213 1340.087 853.3 C 1340.087 839.386 1351.379 828.094 1365.292 828.094 C 1379.206 828.094 1390.498 839.386 1390.498 853.3 C 1390.498 867.213 1379.206 878.506 1365.292 878.506 Z " fill-rule="evenodd" fill="rgb(50,50,50)"/><path d=" M 1180.451 878.506 C 1166.537 878.506 1155.245 867.213 1155.245 853.3 C 1155.245 839.386 1166.537 828.094 1180.451 828.094 C 1194.364 828.094 1205.656 839.386 1205.656 853.3 C 1205.656 867.213 1194.364 878.506 1180.451 878.506 Z " fill-rule="evenodd" fill="rgb(50,50,50)"/><path d=" M 1407.302 660.057 C 1373.694 660.057 1306.479 592.841 1306.479 592.841 L 1440.909 592.841 C 1440.909 592.841 1440.909 660.057 1407.302 660.057 Z " fill-rule="evenodd" fill="rgb(50,50,50)"/><path d=" M 1289.675 828.088 L 1289.675 811.284 C 1289.675 802.008 1282.147 794.48 1272.872 794.48 C 1263.596 794.48 1256.068 802.008 1256.068 811.284 L 1256.068 828.088 C 1246.792 828.088 1239.264 835.616 1239.264 844.891 L 1239.264 878.499 C 1239.264 887.775 1246.792 895.303 1256.068 895.303 L 1256.068 895.303 C 1256.068 904.595 1263.596 912.106 1272.872 912.106 C 1282.147 912.106 1289.675 904.595 1289.675 895.303 L 1289.675 895.303 C 1298.951 895.303 1306.479 887.775 1306.479 878.499 L 1306.479 844.891 C 1306.479 835.616 1298.951 828.088 1289.675 828.088 Z " fill-rule="evenodd" fill="rgb(50,50,50)"/><g opacity="0.5"><path d=" M 1104.607 559.234 C 1100.272 559.234 1096.743 555.722 1096.743 551.37 C 1096.743 486.39 1149.607 433.525 1214.604 433.525 C 1218.94 433.525 1222.452 437.037 1222.452 441.389 C 1222.452 445.724 1218.94 449.236 1214.604 449.236 C 1158.278 449.236 1112.471 495.06 1112.471 551.37 C 1112.471 555.722 1108.942 559.234 1104.607 559.234 Z " fill-rule="evenodd" fill="rgb(255,255,255)"/></g><path d=" M 1474.515 542.43 L 1071.225 542.43 L 1071.225 576.038 L 1474.515 576.038 L 1474.515 542.43 Z " fill-rule="evenodd" fill="rgb(50,50,50)"/><path d=" M 1403.101 735.674 C 1403.101 735.674 1393.388 734.632 1373.879 726.415 C 1363.662 722.13 1351.463 713.274 1338.574 703.83 C 1325.703 694.437 1311.016 684.775 1297.103 680.305 C 1289.843 677.969 1281.173 676.911 1272.872 676.86 C 1264.57 676.911 1255.9 677.969 1248.641 680.305 C 1234.727 684.775 1220.041 694.437 1207.169 703.83 C 1194.28 713.274 1182.081 722.13 1171.864 726.415 C 1152.355 734.632 1142.642 735.674 1142.642 735.674 C 1140.323 735.674 1138.441 737.556 1138.441 739.874 C 1138.441 742.193 1140.323 744.075 1142.642 744.075 L 1155.245 744.075 C 1155.245 744.075 1158.387 743.891 1161.916 743.571 C 1165.109 743.336 1171.662 742.16 1177.661 740.345 C 1190.415 736.9 1205.673 729.271 1219.772 722.012 C 1233.904 714.736 1247.515 708.989 1257.244 707.544 C 1263.562 706.469 1268.335 705.998 1272.872 705.981 C 1277.409 705.998 1282.181 706.469 1288.499 707.544 C 1298.228 708.989 1311.84 714.736 1325.971 722.012 C 1340.07 729.271 1355.328 736.9 1368.082 740.345 C 1374.081 742.16 1380.634 743.336 1383.827 743.571 C 1387.356 743.891 1390.498 744.075 1390.498 744.075 L 1403.101 744.075 C 1405.42 744.075 1407.302 742.193 1407.302 739.874 C 1407.302 737.556 1405.42 735.674 1403.101 735.674 Z " fill-rule="evenodd" fill="rgb(80,80,80)"/><path d=" M 1340.087 729.063 C 1345.766 731.819 1351.446 734.407 1356.89 736.541 L 1356.89 716.813 C 1351.53 713.251 1345.867 709.167 1340.087 704.933 L 1340.087 729.063 Z " fill-rule="evenodd" fill="rgb(50,50,50)"/><path d=" M 1289.675 707.816 C 1294.532 708.673 1300.228 710.454 1306.479 712.975 L 1306.479 684.073 C 1303.337 682.627 1300.194 681.3 1297.103 680.308 C 1294.8 679.569 1292.196 679.166 1289.675 678.679 L 1289.675 707.816 Z " fill-rule="evenodd" fill="rgb(50,50,50)"/><path d=" M 1205.656 729.063 C 1199.977 731.819 1194.297 734.407 1188.853 736.541 L 1188.853 716.813 C 1194.213 713.251 1199.876 709.167 1205.656 704.933 L 1205.656 729.063 Z " fill-rule="evenodd" fill="rgb(50,50,50)"/><path d=" M 1256.068 707.816 C 1251.211 708.673 1245.515 710.454 1239.264 712.975 L 1239.264 684.073 C 1242.406 682.627 1245.549 681.3 1248.641 680.308 C 1250.943 679.569 1253.547 679.166 1256.068 678.679 L 1256.068 707.816 Z " fill-rule="evenodd" fill="rgb(50,50,50)"/></g></g></g></g></svg>