<?xml version="1.0" encoding="UTF-8" standalone="no"?><!-- Generator: Gravit.io --><svg xmlns="http://www.w3.org/2000/svg" xmlns:xlink="http://www.w3.org/1999/xlink" style="isolation:isolate" viewBox="5342.44 2633.5 438.56 676" width="438.56pt" height="676pt"><defs><clipPath id="_clipPath_ocblnM5sNRZkkrsYIJ3yFQM17HxKSu2I"><rect x="5342.44" y="2633.5" width="438.56" height="676"/></clipPath></defs><g clip-path="url(#_clipPath_ocblnM5sNRZkkrsYIJ3yFQM17HxKSu2I)"><rect x="5349.863" y="2644" width="25.305" height="660" transform="matrix(1,0,0,1,0,0)" fill="rgb(36,36,36)"/><rect x="5745.924" y="2638" width="25.076" height="666" transform="matrix(1,0,0,1,0,0)" fill="rgb(36,36,36)"/><path d=" M 5355 2641 L 5375 2661 L 5375 2811 L 5355 2831 L 5355 2951 L 5365 2961 L 5365 3172.02 L 5349.94 3172.02 L 5350 3232 L 5360 3242 L 5360 3252 L 5350 3262 L 5350 3302" fill="none" vector-effect="non-scaling-stroke" stroke-width="5" stroke="rgb(255,153,0)" stroke-linejoin="miter" stroke-linecap="square" stroke-miterlimit="3"/><path d=" M 5763.5 2641 L 5743.5 2661 L 5743.5 2811 L 5763.5 2831 L 5763.5 2951 L 5753.5 2961 L 5753.5 3051 L 5753.5 3172 L 5773.5 3172 L 5773.5 3232 L 5763.5 3242 L 5763.5 3252 L 5773.5 3262 L 5773.5 3302" fill="none" vector-effect="non-scaling-stroke" stroke-width="5" stroke="rgb(255,153,0)" stroke-linejoin="miter" stroke-linecap="square" stroke-miterlimit="3"/></g></svg>