<?xml version="1.0" encoding="UTF-8" standalone="no"?><!-- Generator: Gravit.io --><svg xmlns="http://www.w3.org/2000/svg" xmlns:xlink="http://www.w3.org/1999/xlink" style="isolation:isolate" viewBox="1150.22 277.75 438.56 999.75" width="438.56pt" height="999.75pt"><defs><clipPath id="_clipPath_FXbvKt4ugq1at23jeD6f4XjF1lR3KOti"><rect x="1150.22" y="277.75" width="438.56" height="999.75"/></clipPath></defs><g clip-path="url(#_clipPath_FXbvKt4ugq1at23jeD6f4XjF1lR3KOti)"><path d=" M 1162.78 285.25 L 1182.78 305.25 L 1182.78 455.25 L 1162.78 475.25 L 1162.78 595.25 L 1172.78 605.25 L 1172.78 816.27 L 1157.72 816.27 L 1157.78 876.25 L 1167.78 886.25 L 1167.78 896.25 L 1157.78 906.25 L 1160 1270" fill="none" vector-effect="non-scaling-stroke" stroke-width="5" stroke="rgb(255,153,0)" stroke-linejoin="miter" stroke-linecap="square" stroke-miterlimit="3"/><path d=" M 1571.28 285.25 L 1551.28 305.25 L 1551.28 455.25 L 1571.28 475.25 L 1571.28 595.25 L 1561.28 605.25 L 1561.28 695.25 L 1561.28 816.25 L 1581.28 816.25 L 1581.28 876.25 L 1571.28 886.25 L 1571.28 896.25 L 1581.28 906.25 L 1580 1270" fill="none" vector-effect="non-scaling-stroke" stroke-width="5" stroke="rgb(255,153,0)" stroke-linejoin="miter" stroke-linecap="square" stroke-miterlimit="3"/></g></svg>