<?xml version="1.0" encoding="UTF-8" standalone="no"?><!-- Generator: Gravit.io --><svg xmlns="http://www.w3.org/2000/svg" xmlns:xlink="http://www.w3.org/1999/xlink" style="isolation:isolate" viewBox="801 868 300 132.001" width="300pt" height="132.001pt"><defs><clipPath id="_clipPath_FMfiZx8i7NJIUFommdTLtfmvspr22ox6"><rect x="801" y="868" width="300" height="132.001"/></clipPath></defs><g clip-path="url(#_clipPath_FMfiZx8i7NJIUFommdTLtfmvspr22ox6)"><g><g><g><path d=" M 837 903.548 C 806.286 893.355 801 906.885 801 906.885 C 816.36 906.885 831.72 926.523 831.72 926.523 C 852.198 951.998 867.552 951.998 867.552 951.998 C 872.13 951.998 876.168 951.039 879.69 949.766 C 877.77 943.874 885 937.593 885 931.028 C 885 923.385 900.186 922.298 903 914.318 C 882.558 916.97 837 903.548 837 903.548 Z " fill-rule="evenodd" fill="rgb(181,6,13)"/><path d=" M 999 914.316 C 1001.814 922.302 1017 923.387 1017 931.031 C 1017 937.59 1024.23 943.877 1022.31 949.763 C 1025.832 951.041 1029.87 952.001 1034.448 952.001 C 1034.448 952.001 1049.802 952.001 1070.28 926.519 C 1070.28 926.519 1085.64 906.887 1101 906.887 C 1101 906.887 1095.714 893.358 1065 903.546 C 1065 903.546 1019.442 916.974 999 914.316 Z " fill-rule="evenodd" fill="rgb(181,6,13)"/><path d=" M 1017 934 C 1015.26 931.606 1012.056 923.542 1012.056 921.016 C 1012.056 915.604 995.976 909.838 993 904.186 C 1023.972 906.322 1063.056 899.782 1063.056 899.782 C 1100.502 891.748 1101 906.886 1101 906.886 C 1083.252 902.5 1064.652 912.43 1064.652 912.43 C 1028.472 931.576 1018.974 934.174 1017 934 Z " fill-rule="evenodd" fill="rgb(228,40,29)"/><path d=" M 951 868 C 909.36 868 886.95 920.014 878.064 942.976 C 876.252 947.662 875.874 952.756 876.846 957.544 C 877.89 962.722 881.022 967.132 885.144 970 L 933 1000 L 969 1000 L 1016.994 969.904 C 1020.468 967.492 1023.336 964.012 1024.602 959.77 C 1026.21 954.358 1026.03 948.394 1023.936 942.976 C 1015.05 920.014 992.64 868 951 868 Z " fill-rule="evenodd" fill="rgb(228,40,29)"/><path d=" M 957 952 L 945 952 C 943.344 952 942 950.656 942 949 L 942 949 C 942 947.344 943.344 946 945 946 L 957 946 C 958.656 946 960 947.344 960 949 L 960 949 C 960 950.656 958.656 952 957 952 Z " fill-rule="evenodd" fill="rgb(181,6,13)"/><g opacity="0.5"><path d=" M 948 868.234 L 948 886 C 948 887.656 949.344 889 951 889 C 952.656 889 954 887.656 954 886 L 954 868.234 C 952.998 868.174 952.026 868 951 868 C 949.974 868 949.002 868.174 948 868.234 L 948 868.234 Z  M 927 892 C 927 893.656 928.344 895 930 895 C 931.656 895 933 893.656 933 892 L 933 871.588 C 930.942 872.404 928.938 873.334 927 874.396 L 927 892 Z  M 969 871.588 L 969 892 C 969 893.656 970.344 895 972 895 C 973.656 895 975 893.656 975 892 L 975 874.396 C 973.062 873.334 971.058 872.404 969 871.588 L 969 871.588 Z " fill-rule="evenodd" fill="rgb(191,25,25)"/></g><g opacity="0.5"><path d=" M 999 935.5 C 998.172 935.5 997.5 934.828 997.5 934 C 997.5 921.592 987.402 911.5 975 911.5 C 962.598 911.5 952.5 921.592 952.5 934 L 949.5 934 C 949.5 921.592 939.402 911.5 927 911.5 C 914.598 911.5 904.5 921.592 904.5 934 C 904.5 934.828 903.828 935.5 903 935.5 C 902.172 935.5 901.5 934.828 901.5 934 C 901.5 919.942 912.936 908.5 927 908.5 C 938.04 908.5 947.454 915.544 951 925.378 C 954.546 915.544 963.96 908.5 975 908.5 C 989.064 908.5 1000.5 919.942 1000.5 934 C 1000.5 934.828 999.828 935.5 999 935.5 Z " fill-rule="evenodd" fill="rgb(191,25,25)"/></g><path d=" M 933 940 C 933 943.312 930.312 946 927 946 C 923.688 946 921 943.312 921 940 C 921 936.688 923.688 934 927 934 C 930.312 934 933 936.688 933 940 Z " fill-rule="evenodd" fill="rgb(50,50,50)"/><path d=" M 981 940 C 981 943.312 978.312 946 975 946 C 971.688 946 969 943.312 969 940 C 969 936.688 971.688 934 975 934 C 978.312 934 981 936.688 981 940 Z " fill-rule="evenodd" fill="rgb(50,50,50)"/><path d=" M 933 976 L 933 976 C 932.178 976 931.5 975.322 931.5 974.5 L 931.5 965.5 C 931.5 964.678 932.178 964 933 964 C 933.822 964 934.5 964.678 934.5 965.5 L 934.5 974.5 C 934.5 975.322 933.822 976 933 976 Z " fill-rule="evenodd" fill="rgb(181,6,13)"/><path d=" M 951 979 L 951 979 C 950.178 979 949.5 978.322 949.5 977.5 L 949.5 968.5 C 949.5 967.678 950.178 967 951 967 C 951.822 967 952.5 967.678 952.5 968.5 L 952.5 977.5 C 952.5 978.322 951.822 979 951 979 Z " fill-rule="evenodd" fill="rgb(181,6,13)"/><path d=" M 969 979 L 969 979 C 968.178 979 967.5 978.322 967.5 977.5 L 967.5 968.5 C 967.5 967.678 968.178 967 969 967 C 969.822 967 970.5 967.678 970.5 968.5 L 970.5 977.5 C 970.5 978.322 969.822 979 969 979 Z " fill-rule="evenodd" fill="rgb(181,6,13)"/><path d=" M 952.515 982.5 C 940.403 982.5 925.64 968.875 922.515 968 C 919.08 967.038 928.217 975.748 930.969 978 C 935.094 981.375 943.918 987.884 952.515 988 C 961.387 988.119 969.406 982.281 974.844 978 C 977.637 975.8 985.47 965.987 982.515 968 C 962.515 981.625 959.89 982.5 952.515 982.5 Z " fill-rule="evenodd" fill="rgb(50,50,50)"/></g></g></g></g></svg>