<?xml version="1.0" encoding="UTF-8" standalone="no"?><!-- Generator: Gravit.io --><svg xmlns="http://www.w3.org/2000/svg" xmlns:xlink="http://www.w3.org/1999/xlink" style="isolation:isolate" viewBox="1684 561 300 132.001" width="300pt" height="132.001pt"><defs><clipPath id="_clipPath_wOczOJatXEVyWxXBVn0VI4uzXqP4yH37"><rect x="1684" y="561" width="300" height="132.001"/></clipPath></defs><g clip-path="url(#_clipPath_wOczOJatXEVyWxXBVn0VI4uzXqP4yH37)"><g><g><g><path d=" M 1720 596.548 C 1689.286 586.355 1684 599.885 1684 599.885 C 1699.36 599.885 1714.72 619.523 1714.72 619.523 C 1735.198 644.998 1750.552 644.998 1750.552 644.998 C 1755.13 644.998 1759.168 644.039 1762.69 642.766 C 1760.77 636.874 1768 630.593 1768 624.028 C 1768 616.385 1783.186 615.298 1786 607.318 C 1765.558 609.97 1720 596.548 1720 596.548 Z " fill-rule="evenodd" fill="rgb(25,191,169)"/><path d=" M 1768 627 C 1769.74 624.606 1772.944 616.542 1772.944 614.016 C 1772.944 608.604 1789.024 602.838 1792 597.186 C 1761.028 599.322 1721.944 592.782 1721.944 592.782 C 1684.498 584.748 1684 599.886 1684 599.886 C 1701.748 595.5 1720.348 605.43 1720.348 605.43 C 1756.528 624.576 1766.026 627.174 1768 627 Z " fill-rule="evenodd" fill="rgb(64,229,173)"/><path d=" M 1882 607.316 C 1884.814 615.302 1900 616.387 1900 624.031 C 1900 630.59 1907.23 636.877 1905.31 642.763 C 1908.832 644.041 1912.87 645.001 1917.448 645.001 C 1917.448 645.001 1932.802 645.001 1953.28 619.519 C 1953.28 619.519 1968.64 599.887 1984 599.887 C 1984 599.887 1978.714 586.358 1948 596.546 C 1948 596.546 1902.442 609.974 1882 607.316 Z " fill-rule="evenodd" fill="rgb(25,191,169)"/><path d=" M 1900 627 C 1898.26 624.606 1895.056 616.542 1895.056 614.016 C 1895.056 608.604 1878.976 602.838 1876 597.186 C 1906.972 599.322 1946.056 592.782 1946.056 592.782 C 1983.502 584.748 1984 599.886 1984 599.886 C 1966.252 595.5 1947.652 605.43 1947.652 605.43 C 1911.472 624.576 1901.974 627.174 1900 627 Z " fill-rule="evenodd" fill="rgb(64,229,173)"/><path d=" M 1834 561 C 1792.36 561 1769.95 613.014 1761.064 635.976 C 1759.252 640.662 1758.874 645.756 1759.846 650.544 C 1760.89 655.722 1764.022 660.132 1768.144 663 L 1816 693 L 1852 693 L 1899.994 662.904 C 1903.468 660.492 1906.336 657.012 1907.602 652.77 C 1909.21 647.358 1909.03 641.394 1906.936 635.976 C 1898.05 613.014 1875.64 561 1834 561 Z " fill-rule="evenodd" fill="rgb(64,229,173)"/><path d=" M 1840 645 L 1828 645 C 1826.344 645 1825 643.656 1825 642 L 1825 642 C 1825 640.344 1826.344 639 1828 639 L 1840 639 C 1841.656 639 1843 640.344 1843 642 L 1843 642 C 1843 643.656 1841.656 645 1840 645 Z " fill-rule="evenodd" fill="rgb(25,191,169)"/><g opacity="0.5"><path d=" M 1831 561.234 L 1831 579 C 1831 580.656 1832.344 582 1834 582 C 1835.656 582 1837 580.656 1837 579 L 1837 561.234 C 1835.998 561.174 1835.026 561 1834 561 C 1832.974 561 1832.002 561.174 1831 561.234 L 1831 561.234 Z  M 1810 585 C 1810 586.656 1811.344 588 1813 588 C 1814.656 588 1816 586.656 1816 585 L 1816 564.588 C 1813.942 565.404 1811.938 566.334 1810 567.396 L 1810 585 Z  M 1852 564.588 L 1852 585 C 1852 586.656 1853.344 588 1855 588 C 1856.656 588 1858 586.656 1858 585 L 1858 567.396 C 1856.062 566.334 1854.058 565.404 1852 564.588 L 1852 564.588 Z " fill-rule="evenodd" fill="rgb(25,191,169)"/></g><g opacity="0.5"><path d=" M 1882 628.5 C 1881.172 628.5 1880.5 627.828 1880.5 627 C 1880.5 614.592 1870.402 604.5 1858 604.5 C 1845.598 604.5 1835.5 614.592 1835.5 627 L 1832.5 627 C 1832.5 614.592 1822.402 604.5 1810 604.5 C 1797.598 604.5 1787.5 614.592 1787.5 627 C 1787.5 627.828 1786.828 628.5 1786 628.5 C 1785.172 628.5 1784.5 627.828 1784.5 627 C 1784.5 612.942 1795.936 601.5 1810 601.5 C 1821.04 601.5 1830.454 608.544 1834 618.378 C 1837.546 608.544 1846.96 601.5 1858 601.5 C 1872.064 601.5 1883.5 612.942 1883.5 627 C 1883.5 627.828 1882.828 628.5 1882 628.5 Z " fill-rule="evenodd" fill="rgb(25,191,169)"/></g><path d=" M 1816 633 C 1816 636.312 1813.312 639 1810 639 C 1806.688 639 1804 636.312 1804 633 C 1804 629.688 1806.688 627 1810 627 C 1813.312 627 1816 629.688 1816 633 Z " fill-rule="evenodd" fill="rgb(50,50,50)"/><path d=" M 1864 633 C 1864 636.312 1861.312 639 1858 639 C 1854.688 639 1852 636.312 1852 633 C 1852 629.688 1854.688 627 1858 627 C 1861.312 627 1864 629.688 1864 633 Z " fill-rule="evenodd" fill="rgb(50,50,50)"/><path d=" M 1816 669 L 1816 669 C 1815.178 669 1814.5 668.322 1814.5 667.5 L 1814.5 658.5 C 1814.5 657.678 1815.178 657 1816 657 C 1816.822 657 1817.5 657.678 1817.5 658.5 L 1817.5 667.5 C 1817.5 668.322 1816.822 669 1816 669 Z " fill-rule="evenodd" fill="rgb(25,191,169)"/><path d=" M 1834 672 L 1834 672 C 1833.178 672 1832.5 671.322 1832.5 670.5 L 1832.5 661.5 C 1832.5 660.678 1833.178 660 1834 660 C 1834.822 660 1835.5 660.678 1835.5 661.5 L 1835.5 670.5 C 1835.5 671.322 1834.822 672 1834 672 Z " fill-rule="evenodd" fill="rgb(25,191,169)"/><path d=" M 1852 672 L 1852 672 C 1851.178 672 1850.5 671.322 1850.5 670.5 L 1850.5 661.5 C 1850.5 660.678 1851.178 660 1852 660 C 1852.822 660 1853.5 660.678 1853.5 661.5 L 1853.5 670.5 C 1853.5 671.322 1852.822 672 1852 672 Z " fill-rule="evenodd" fill="rgb(25,191,169)"/><path d=" M 1835.515 675.5 C 1823.403 675.5 1808.64 661.875 1805.515 661 C 1802.08 660.038 1811.217 668.748 1813.969 671 C 1818.094 674.375 1826.918 680.884 1835.515 681 C 1844.387 681.119 1852.406 675.281 1857.844 671 C 1860.637 668.8 1868.47 658.987 1865.515 661 C 1845.515 674.625 1842.89 675.5 1835.515 675.5 Z " fill-rule="evenodd" fill="rgb(50,50,50)"/></g></g></g></g></svg>