<?xml version="1.0" encoding="UTF-8" standalone="no"?><!-- Generator: Gravit.io --><svg xmlns="http://www.w3.org/2000/svg" xmlns:xlink="http://www.w3.org/1999/xlink" style="isolation:isolate" viewBox="862.446 880 167.554 180" width="167.554pt" height="180pt"><defs><clipPath id="_clipPath_QOnGMnkiQbm1cM0uePa1gz0SGeVeL9Y4"><rect x="862.446" y="880" width="167.554" height="180"/></clipPath></defs><g clip-path="url(#_clipPath_QOnGMnkiQbm1cM0uePa1gz0SGeVeL9Y4)"><g><g><g><path d=" M 1018.223 970 L 1018.223 940 L 946.223 940 L 874.223 940 L 874.223 970 C 874.223 970 844.037 990.574 880.319 1028.242 C 880.283 1028.83 880.223 1029.406 880.223 1030 C 880.223 1046.566 894.995 1060 913.223 1060 C 931.451 1060 946.223 1046.566 946.223 1030 C 946.223 1046.566 960.995 1060 979.223 1060 C 997.451 1060 1012.223 1046.566 1012.223 1030 C 1012.223 1029.406 1012.163 1028.83 1012.127 1028.242 C 1048.409 990.574 1018.223 970 1018.223 970 Z " fill-rule="evenodd" fill="rgb(228,40,29)"/><path d=" M 973.323 880 L 919.125 880 C 894.327 880 874.221 900.1 874.221 924.898 L 874.221 928 L 1018.221 928 L 1018.221 924.898 C 1018.221 900.1 998.121 880 973.323 880 Z " fill-rule="evenodd" fill="rgb(181,6,13)"/><path d=" M 898.223 970 C 886.223 970 886.223 946 886.223 946 L 934.223 946 C 934.223 946 910.223 970 898.223 970 Z " fill-rule="evenodd" fill="rgb(50,50,50)"/><path d=" M 979.223 1048 C 974.255 1048 970.223 1043.968 970.223 1039 C 970.223 1034.032 974.255 1030 979.223 1030 C 984.191 1030 988.223 1034.032 988.223 1039 C 988.223 1043.968 984.191 1048 979.223 1048 Z " fill-rule="evenodd" fill="rgb(50,50,50)"/><path d=" M 913.223 1048 C 908.255 1048 904.223 1043.968 904.223 1039 C 904.223 1034.032 908.255 1030 913.223 1030 C 918.191 1030 922.223 1034.032 922.223 1039 C 922.223 1043.968 918.191 1048 913.223 1048 Z " fill-rule="evenodd" fill="rgb(50,50,50)"/><path d=" M 994.223 970 C 982.223 970 958.223 946 958.223 946 L 1006.223 946 C 1006.223 946 1006.223 970 994.223 970 Z " fill-rule="evenodd" fill="rgb(50,50,50)"/><path d=" M 952.223 1029.998 L 952.223 1023.998 C 952.223 1020.686 949.535 1017.998 946.223 1017.998 C 942.911 1017.998 940.223 1020.686 940.223 1023.998 L 940.223 1029.998 C 936.911 1029.998 934.223 1032.686 934.223 1035.998 L 934.223 1047.998 C 934.223 1051.31 936.911 1053.998 940.223 1053.998 L 940.223 1053.998 C 940.223 1057.316 942.911 1059.998 946.223 1059.998 C 949.535 1059.998 952.223 1057.316 952.223 1053.998 L 952.223 1053.998 C 955.535 1053.998 958.223 1051.31 958.223 1047.998 L 958.223 1035.998 C 958.223 1032.686 955.535 1029.998 952.223 1029.998 Z " fill-rule="evenodd" fill="rgb(50,50,50)"/><g opacity="0.5"><path d=" M 886.142 934 C 884.594 934 883.334 932.746 883.334 931.192 C 883.334 907.99 902.21 889.114 925.418 889.114 C 926.966 889.114 928.22 890.368 928.22 891.922 C 928.22 893.47 926.966 894.724 925.418 894.724 C 905.306 894.724 888.95 911.086 888.95 931.192 C 888.95 932.746 887.69 934 886.142 934 Z " fill-rule="evenodd" fill="rgb(255,255,255)"/></g><path d=" M 1018.222 928 L 874.222 928 L 874.222 940 L 1018.222 940 L 1018.222 928 Z " fill-rule="evenodd" fill="rgb(50,50,50)"/><path d=" M 992.723 997 C 992.723 997 989.255 996.628 982.289 993.694 C 978.641 992.164 974.285 989.002 969.683 985.63 C 965.087 982.276 959.843 978.826 954.875 977.23 C 952.283 976.396 949.187 976.018 946.223 976 C 943.259 976.018 940.163 976.396 937.571 977.23 C 932.603 978.826 927.359 982.276 922.763 985.63 C 918.161 989.002 913.805 992.164 910.157 993.694 C 903.191 996.628 899.723 997 899.723 997 C 898.895 997 898.223 997.672 898.223 998.5 C 898.223 999.328 898.895 1000 899.723 1000 L 904.223 1000 C 904.223 1000 905.345 999.934 906.605 999.82 C 907.745 999.736 910.085 999.316 912.227 998.668 C 916.781 997.438 922.229 994.714 927.263 992.122 C 932.309 989.524 937.169 987.472 940.643 986.956 C 942.899 986.572 944.603 986.404 946.223 986.398 C 947.843 986.404 949.547 986.572 951.803 986.956 C 955.277 987.472 960.137 989.524 965.183 992.122 C 970.217 994.714 975.665 997.438 980.219 998.668 C 982.361 999.316 984.701 999.736 985.841 999.82 C 987.101 999.934 988.223 1000 988.223 1000 L 992.723 1000 C 993.551 1000 994.223 999.328 994.223 998.5 C 994.223 997.672 993.551 997 992.723 997 Z " fill-rule="evenodd" fill="rgb(80,80,80)"/><path d=" M 970.223 994.64 C 972.251 995.624 974.279 996.548 976.223 997.31 L 976.223 990.266 C 974.309 988.994 972.287 987.536 970.223 986.024 L 970.223 994.64 Z " fill-rule="evenodd" fill="rgb(50,50,50)"/><path d=" M 952.223 987.053 C 953.957 987.359 955.991 987.995 958.223 988.895 L 958.223 978.575 C 957.101 978.059 955.979 977.585 954.875 977.231 C 954.053 976.967 953.123 976.823 952.223 976.649 L 952.223 987.053 Z " fill-rule="evenodd" fill="rgb(50,50,50)"/><path d=" M 922.223 994.64 C 920.195 995.624 918.167 996.548 916.223 997.31 L 916.223 990.266 C 918.137 988.994 920.159 987.536 922.223 986.024 L 922.223 994.64 Z " fill-rule="evenodd" fill="rgb(50,50,50)"/><path d=" M 940.223 987.053 C 938.489 987.359 936.455 987.995 934.223 988.895 L 934.223 978.575 C 935.345 978.059 936.467 977.585 937.571 977.231 C 938.393 976.967 939.323 976.823 940.223 976.649 L 940.223 987.053 Z " fill-rule="evenodd" fill="rgb(50,50,50)"/></g></g></g></g></svg>