<?xml version="1.0" encoding="UTF-8" standalone="no"?><!-- Generator: Gravit.io --><svg xmlns="http://www.w3.org/2000/svg" xmlns:xlink="http://www.w3.org/1999/xlink" style="isolation:isolate" viewBox="895.688 810 180 228" width="180pt" height="228pt"><defs><clipPath id="_clipPath_6lB0ylEnwHx9jz3zAVyP15lleHSbGhtl"><rect x="895.688" y="810" width="180" height="228"/></clipPath></defs><g clip-path="url(#_clipPath_6lB0ylEnwHx9jz3zAVyP15lleHSbGhtl)"><g><g><g><path d=" M 1025.274 975.328 C 1024.89 976.834 1023.54 977.83 1022.064 977.824 L 958.26 977.824 L 955.29 977.824 C 948.852 977.8 943.662 972.214 943.686 965.716 C 943.716 959.218 948.954 953.974 955.392 953.998 C 956.364 954.004 957.36 954.148 958.26 954.376 L 1022.064 971.044 L 1022.904 971.266 C 1024.668 971.728 1025.73 973.546 1025.274 975.328 Z " fill-rule="evenodd" fill="rgb(50,50,50)"/><path d=" M 985.688 810 C 945.926 810 911.582 853.92 908.804 895.452 L 895.688 1002 L 1075.687 1002 L 1062.572 895.452 C 1059.794 853.92 1025.45 810 985.688 810 Z " fill-rule="evenodd" fill="rgb(25,191,169)"/><path d=" M 1021.688 886 L 1021.688 886 L 1039.687 860.224 L 1003.688 873.112 L 1021.688 847.336 L 997.688 853.78 L 1003.688 827.998 L 985.688 853.78 L 967.688 827.998 L 973.688 853.78 L 949.688 847.336 L 967.688 873.112 L 931.688 860.224 L 949.688 886 C 933.59 882.544 918.206 894.7 916.484 912.238 L 907.688 1001.998 L 985.688 1001.998 L 1063.687 1001.998 L 1054.892 912.238 C 1053.17 894.7 1037.786 882.544 1021.688 886 Z " fill-rule="evenodd" fill="rgb(64,229,173)"/><path d=" M 979.688 942 C 957.002 942 946.688 966 946.688 966 L 1024.687 966 C 1024.687 966 1016.059 942 991.688 942 L 985.688 948 L 979.688 942 Z " fill-rule="evenodd" fill="rgb(25,191,169)"/><mask id="_mask_3URg3blC6qtLrGDslMNGRpHAdVeLH5I2" x="-200%" y="-200%" width="400%" height="400%"><rect x="-200%" y="-200%" width="400%" height="400%" style="fill:white;"/><line x1="985.688" y1="936" x2="985.688" y2="966" fill="black" stroke="none"/></mask><line x1="985.688" y1="936" x2="985.688" y2="966" mask="url(#_mask_3URg3blC6qtLrGDslMNGRpHAdVeLH5I2)" vector-effect="non-scaling-stroke" stroke-width="13.416" stroke="rgb(25,191,169)" stroke-linejoin="miter" stroke-linecap="round" stroke-miterlimit="4"/><path d=" M 985.688 928.616 C 994.862 928.616 1002.302 932.954 1002.302 938.306 C 1002.302 938.924 1002.182 939.524 1001.989 940.106 C 1001.21 939.86 1000.393 939.692 999.536 939.692 C 995.15 939.692 991.604 943.094 991.286 947.396 C 989.528 947.768 987.662 948.002 985.688 948.002 C 983.714 948.002 981.848 947.768 980.09 947.396 C 979.772 943.094 976.225 939.692 971.84 939.692 C 970.982 939.692 970.166 939.86 969.379 940.106 C 969.194 939.524 969.073 938.924 969.073 938.306 C 969.073 932.954 976.514 928.616 985.688 928.616 Z " fill-rule="evenodd" fill="rgb(50,50,50)"/><path d=" M 937.688 996 L 949.688 1026 L 961.688 1008 L 973.688 1038 L 985.688 1008 L 997.688 1038 L 1009.688 1008 L 1021.688 1026 L 1033.687 996 L 937.688 996 Z " fill-rule="evenodd" fill="rgb(25,191,169)"/><path d=" M 997.688 912.132 C 997.688 918.684 1003.003 924 1009.556 924 L 1033.687 924 C 1033.687 924 1022.084 900.264 1009.556 900.264 C 1003.208 900.264 997.688 905.58 997.688 912.132 Z " fill-rule="evenodd" fill="rgb(25,191,169)"/><path d=" M 973.688 912.132 C 973.688 918.684 968.372 924 961.82 924 L 937.688 924 C 937.688 924 949.292 900.264 961.82 900.264 C 968.168 900.264 973.688 905.58 973.688 912.132 Z " fill-rule="evenodd" fill="rgb(25,191,169)"/><path d=" M 1009.688 907.501 C 1007.197 907.501 1005.188 909.511 1005.188 912.001 C 1005.188 914.491 1007.197 916.501 1009.688 916.501 C 1012.178 916.501 1014.188 914.491 1014.188 912.001 C 1014.188 909.511 1012.178 907.501 1009.688 907.501 Z " fill-rule="evenodd" fill="rgb(50,50,50)"/><path d=" M 961.688 907.501 C 959.198 907.501 957.188 909.511 957.188 912.001 C 957.188 914.491 959.198 916.501 961.688 916.501 C 964.178 916.501 966.188 914.491 966.188 912.001 C 966.188 909.511 964.178 907.501 961.688 907.501 Z " fill-rule="evenodd" fill="rgb(50,50,50)"/><path d=" M 1018.688 978.001 L 952.688 978.001 C 947.738 978.001 943.688 973.951 943.688 969.001 C 943.688 964.051 947.738 960.001 952.688 960.001 L 1018.688 960.001 C 1023.638 960.001 1027.687 964.051 1027.687 969.001 L 1027.687 969.001 C 1027.687 973.951 1023.638 978.001 1018.688 978.001 Z " fill-rule="evenodd" fill="rgb(50,50,50)"/><path d=" M 961.688 978 L 967.688 966 L 973.688 978 L 961.688 978 Z " fill-rule="evenodd" fill="rgb(255,255,255)"/><path d=" M 997.688 978 L 1003.688 966 L 1009.688 978 L 997.688 978 Z " fill-rule="evenodd" fill="rgb(255,255,255)"/><path d=" M 1021.688 960 L 1015.688 972 L 1009.688 960 L 1021.688 960 Z " fill-rule="evenodd" fill="rgb(255,255,255)"/><path d=" M 961.688 960 L 955.688 972 L 949.688 960 L 961.688 960 Z " fill-rule="evenodd" fill="rgb(255,255,255)"/></g></g></g></g></svg>