<?xml version="1.0" encoding="UTF-8" standalone="no"?><!-- Generator: Gravit.io --><svg xmlns="http://www.w3.org/2000/svg" xmlns:xlink="http://www.w3.org/1999/xlink" style="isolation:isolate" viewBox="830 870 180 228" width="180pt" height="228pt"><defs><clipPath id="_clipPath_kb3B1NBeA1KJkYKgTPpNHlC9LkpkEoZJ"><rect x="830" y="870" width="180" height="228"/></clipPath></defs><g clip-path="url(#_clipPath_kb3B1NBeA1KJkYKgTPpNHlC9LkpkEoZJ)"><g><g><g><path d=" M 959.587 1035.328 C 959.203 1036.834 957.853 1037.83 956.377 1037.824 L 892.573 1037.824 L 889.603 1037.824 C 883.165 1037.8 877.975 1032.214 877.999 1025.716 C 878.029 1019.218 883.267 1013.974 889.705 1013.998 C 890.677 1014.004 891.673 1014.148 892.573 1014.376 L 956.377 1031.044 L 957.217 1031.266 C 958.981 1031.728 960.043 1033.546 959.587 1035.328 Z " fill-rule="evenodd" fill="rgb(50,50,50)"/><path d=" M 920 870 C 880.238 870 845.894 913.92 843.116 955.452 L 830 1062 L 1010 1062 L 996.884 955.452 C 994.106 913.92 959.762 870 920 870 Z " fill-rule="evenodd" fill="rgb(181,6,13)"/><path d=" M 956 946 L 956 946 L 974 920.224 L 938 933.112 L 956 907.336 L 932 913.78 L 938 887.998 L 920 913.78 L 902 887.998 L 908 913.78 L 884 907.336 L 902 933.112 L 866 920.224 L 884 946 C 867.902 942.544 852.518 954.7 850.796 972.238 L 842 1061.998 L 920 1061.998 L 998 1061.998 L 989.204 972.238 C 987.482 954.7 972.098 942.544 956 946 Z " fill-rule="evenodd" fill="rgb(228,40,29)"/><path d=" M 914 1002 C 891.314 1002 881 1026 881 1026 L 959 1026 C 959 1026 950.372 1002 926 1002 L 920 1008 L 914 1002 Z " fill-rule="evenodd" fill="rgb(181,6,13)"/><mask id="_mask_dRwfr0T5HYa1yrkTFhJdSMzzP3pYnR3q" x="-200%" y="-200%" width="400%" height="400%"><rect x="-200%" y="-200%" width="400%" height="400%" style="fill:white;"/><line x1="920" y1="996" x2="920" y2="1026" fill="black" stroke="none"/></mask><line x1="920" y1="996" x2="920" y2="1026" mask="url(#_mask_dRwfr0T5HYa1yrkTFhJdSMzzP3pYnR3q)" vector-effect="non-scaling-stroke" stroke-width="13.416" stroke="rgb(181,6,13)" stroke-linejoin="miter" stroke-linecap="round" stroke-miterlimit="4"/><path d=" M 920 988.616 C 929.174 988.616 936.614 992.954 936.614 998.306 C 936.614 998.924 936.494 999.524 936.302 1000.106 C 935.522 999.86 934.706 999.692 933.848 999.692 C 929.462 999.692 925.916 1003.094 925.598 1007.396 C 923.84 1007.768 921.974 1008.002 920 1008.002 C 918.026 1008.002 916.16 1007.768 914.402 1007.396 C 914.084 1003.094 910.538 999.692 906.152 999.692 C 905.294 999.692 904.478 999.86 903.692 1000.106 C 903.506 999.524 903.386 998.924 903.386 998.306 C 903.386 992.954 910.826 988.616 920 988.616 Z " fill-rule="evenodd" fill="rgb(50,50,50)"/><path d=" M 872 1056 L 884 1086 L 896 1068 L 908 1098 L 920 1068 L 932 1098 L 944 1068 L 956 1086 L 968 1056 L 872 1056 Z " fill-rule="evenodd" fill="rgb(181,6,13)"/><path d=" M 932 972.132 C 932 978.684 937.316 984 943.868 984 L 968 984 C 968 984 956.396 960.264 943.868 960.264 C 937.52 960.264 932 965.58 932 972.132 Z " fill-rule="evenodd" fill="rgb(181,6,13)"/><path d=" M 908 972.132 C 908 978.684 902.684 984 896.132 984 L 872 984 C 872 984 883.604 960.264 896.132 960.264 C 902.48 960.264 908 965.58 908 972.132 Z " fill-rule="evenodd" fill="rgb(181,6,13)"/><path d=" M 944 967.501 C 941.51 967.501 939.5 969.511 939.5 972.001 C 939.5 974.491 941.51 976.501 944 976.501 C 946.49 976.501 948.5 974.491 948.5 972.001 C 948.5 969.511 946.49 967.501 944 967.501 Z " fill-rule="evenodd" fill="rgb(50,50,50)"/><path d=" M 896 967.501 C 893.51 967.501 891.5 969.511 891.5 972.001 C 891.5 974.491 893.51 976.501 896 976.501 C 898.49 976.501 900.5 974.491 900.5 972.001 C 900.5 969.511 898.49 967.501 896 967.501 Z " fill-rule="evenodd" fill="rgb(50,50,50)"/><path d=" M 953 1038.001 L 887 1038.001 C 882.05 1038.001 878 1033.951 878 1029.001 C 878 1024.051 882.05 1020.001 887 1020.001 L 953 1020.001 C 957.95 1020.001 962 1024.051 962 1029.001 L 962 1029.001 C 962 1033.951 957.95 1038.001 953 1038.001 Z " fill-rule="evenodd" fill="rgb(50,50,50)"/><path d=" M 896 1038 L 902 1026 L 908 1038 L 896 1038 Z " fill-rule="evenodd" fill="rgb(255,255,255)"/><path d=" M 932 1038 L 938 1026 L 944 1038 L 932 1038 Z " fill-rule="evenodd" fill="rgb(255,255,255)"/><path d=" M 956 1020 L 950 1032 L 944 1020 L 956 1020 Z " fill-rule="evenodd" fill="rgb(255,255,255)"/><path d=" M 896 1020 L 890 1032 L 884 1020 L 896 1020 Z " fill-rule="evenodd" fill="rgb(255,255,255)"/></g></g></g></g></svg>