<?xml version="1.0" encoding="UTF-8" standalone="no"?><!-- Generator: Gravit.io --><svg xmlns="http://www.w3.org/2000/svg" xmlns:xlink="http://www.w3.org/1999/xlink" style="isolation:isolate" viewBox="922.446 840 167.554 180" width="167.554pt" height="180pt"><defs><clipPath id="_clipPath_6jZ3pV0XEaihCtD0mTwiDbbF0RK6gnGb"><rect x="922.446" y="840" width="167.554" height="180"/></clipPath></defs><g clip-path="url(#_clipPath_6jZ3pV0XEaihCtD0mTwiDbbF0RK6gnGb)"><g><g><g><path d=" M 1078.223 930 L 1078.223 900 L 1006.223 900 L 934.223 900 L 934.223 930 C 934.223 930 904.037 950.574 940.319 988.242 C 940.283 988.83 940.223 989.406 940.223 990 C 940.223 1006.566 954.995 1020 973.223 1020 C 991.451 1020 1006.223 1006.566 1006.223 990 C 1006.223 1006.566 1020.995 1020 1039.223 1020 C 1057.451 1020 1072.223 1006.566 1072.223 990 C 1072.223 989.406 1072.163 988.83 1072.127 988.242 C 1108.409 950.574 1078.223 930 1078.223 930 Z " fill-rule="evenodd" fill="rgb(64,229,173)"/><path d=" M 1033.323 840 L 979.125 840 C 954.327 840 934.221 860.1 934.221 884.898 L 934.221 888 L 1078.221 888 L 1078.221 884.898 C 1078.221 860.1 1058.121 840 1033.323 840 Z " fill-rule="evenodd" fill="rgb(25,191,169)"/><path d=" M 958.223 930 C 946.223 930 946.223 906 946.223 906 L 994.223 906 C 994.223 906 970.223 930 958.223 930 Z " fill-rule="evenodd" fill="rgb(50,50,50)"/><path d=" M 1039.223 1008 C 1034.255 1008 1030.223 1003.968 1030.223 999 C 1030.223 994.032 1034.255 990 1039.223 990 C 1044.191 990 1048.223 994.032 1048.223 999 C 1048.223 1003.968 1044.191 1008 1039.223 1008 Z " fill-rule="evenodd" fill="rgb(50,50,50)"/><path d=" M 973.223 1008 C 968.255 1008 964.223 1003.968 964.223 999 C 964.223 994.032 968.255 990 973.223 990 C 978.191 990 982.223 994.032 982.223 999 C 982.223 1003.968 978.191 1008 973.223 1008 Z " fill-rule="evenodd" fill="rgb(50,50,50)"/><path d=" M 1054.223 930 C 1042.223 930 1018.223 906 1018.223 906 L 1066.223 906 C 1066.223 906 1066.223 930 1054.223 930 Z " fill-rule="evenodd" fill="rgb(50,50,50)"/><path d=" M 1012.223 989.998 L 1012.223 983.998 C 1012.223 980.686 1009.535 977.998 1006.223 977.998 C 1002.911 977.998 1000.223 980.686 1000.223 983.998 L 1000.223 989.998 C 996.911 989.998 994.223 992.686 994.223 995.998 L 994.223 1007.998 C 994.223 1011.31 996.911 1013.998 1000.223 1013.998 L 1000.223 1013.998 C 1000.223 1017.316 1002.911 1019.998 1006.223 1019.998 C 1009.535 1019.998 1012.223 1017.316 1012.223 1013.998 L 1012.223 1013.998 C 1015.535 1013.998 1018.223 1011.31 1018.223 1007.998 L 1018.223 995.998 C 1018.223 992.686 1015.535 989.998 1012.223 989.998 Z " fill-rule="evenodd" fill="rgb(50,50,50)"/><g opacity="0.5"><path d=" M 946.142 894 C 944.594 894 943.334 892.746 943.334 891.192 C 943.334 867.99 962.21 849.114 985.418 849.114 C 986.966 849.114 988.22 850.368 988.22 851.922 C 988.22 853.47 986.966 854.724 985.418 854.724 C 965.306 854.724 948.95 871.086 948.95 891.192 C 948.95 892.746 947.69 894 946.142 894 Z " fill-rule="evenodd" fill="rgb(255,255,255)"/></g><path d=" M 1078.222 888 L 934.222 888 L 934.222 900 L 1078.222 900 L 1078.222 888 Z " fill-rule="evenodd" fill="rgb(50,50,50)"/><path d=" M 1052.723 957 C 1052.723 957 1049.255 956.628 1042.289 953.694 C 1038.641 952.164 1034.285 949.002 1029.683 945.63 C 1025.087 942.276 1019.843 938.826 1014.875 937.23 C 1012.283 936.396 1009.187 936.018 1006.223 936 C 1003.259 936.018 1000.163 936.396 997.571 937.23 C 992.603 938.826 987.359 942.276 982.763 945.63 C 978.161 949.002 973.805 952.164 970.157 953.694 C 963.191 956.628 959.723 957 959.723 957 C 958.895 957 958.223 957.672 958.223 958.5 C 958.223 959.328 958.895 960 959.723 960 L 964.223 960 C 964.223 960 965.345 959.934 966.605 959.82 C 967.745 959.736 970.085 959.316 972.227 958.668 C 976.781 957.438 982.229 954.714 987.263 952.122 C 992.309 949.524 997.169 947.472 1000.643 946.956 C 1002.899 946.572 1004.603 946.404 1006.223 946.398 C 1007.843 946.404 1009.547 946.572 1011.803 946.956 C 1015.277 947.472 1020.137 949.524 1025.183 952.122 C 1030.217 954.714 1035.665 957.438 1040.219 958.668 C 1042.361 959.316 1044.701 959.736 1045.841 959.82 C 1047.101 959.934 1048.223 960 1048.223 960 L 1052.723 960 C 1053.551 960 1054.223 959.328 1054.223 958.5 C 1054.223 957.672 1053.551 957 1052.723 957 Z " fill-rule="evenodd" fill="rgb(80,80,80)"/><path d=" M 1030.223 954.64 C 1032.251 955.624 1034.279 956.548 1036.223 957.31 L 1036.223 950.266 C 1034.309 948.994 1032.287 947.536 1030.223 946.024 L 1030.223 954.64 Z " fill-rule="evenodd" fill="rgb(50,50,50)"/><path d=" M 1012.223 947.053 C 1013.957 947.359 1015.991 947.995 1018.223 948.895 L 1018.223 938.575 C 1017.101 938.059 1015.979 937.585 1014.875 937.231 C 1014.053 936.967 1013.123 936.823 1012.223 936.649 L 1012.223 947.053 Z " fill-rule="evenodd" fill="rgb(50,50,50)"/><path d=" M 982.223 954.64 C 980.195 955.624 978.167 956.548 976.223 957.31 L 976.223 950.266 C 978.137 948.994 980.159 947.536 982.223 946.024 L 982.223 954.64 Z " fill-rule="evenodd" fill="rgb(50,50,50)"/><path d=" M 1000.223 947.053 C 998.489 947.359 996.455 947.995 994.223 948.895 L 994.223 938.575 C 995.345 938.059 996.467 937.585 997.571 937.231 C 998.393 936.967 999.323 936.823 1000.223 936.649 L 1000.223 947.053 Z " fill-rule="evenodd" fill="rgb(50,50,50)"/></g></g></g></g></svg>