<?xml version="1.0" encoding="UTF-8" standalone="no"?><!-- Generator: Gravit.io --><svg xmlns="http://www.w3.org/2000/svg" xmlns:xlink="http://www.w3.org/1999/xlink" style="isolation:isolate" viewBox="1142.5 372.484 665 195.016" width="665pt" height="195.016pt"><defs><clipPath id="_clipPath_V3E0bUZ6JHz96q2Hag1oisKcKhQpvpgv"><rect x="1142.5" y="372.484" width="665" height="195.016"/></clipPath></defs><g clip-path="url(#_clipPath_V3E0bUZ6JHz96q2Hag1oisKcKhQpvpgv)"><path d=" M 1150 380 L 1150 560 L 1200 560 L 1230 530 L 1390 530 L 1390 550 C 1390 555.519 1394.481 560 1400 560 L 1580 560 L 1670 560 L 1680 550 L 1710 550 L 1710 560 L 1750 560 L 1750 550 L 1780 550 L 1780 560 L 1800 560 L 1800 380 L 1780 380 L 1780 390 L 1750 390 L 1750 380 L 1710 380 L 1710 390 L 1680 390 L 1670 380 L 1400 380 C 1394.481 380 1390 384.481 1390 390 L 1390 410 L 1220 410 L 1200 380 L 1150 380 Z " fill="none" vector-effect="non-scaling-stroke" stroke-width="5" stroke="rgb(255,153,0)" stroke-linejoin="miter" stroke-linecap="square" stroke-miterlimit="3"/><path d=" M 1400 379.984 L 1620 379.984 C 1625.519 379.984 1630 384.465 1630 389.984 L 1630 549.984 C 1630 555.503 1625.519 559.984 1620 559.984 L 1400 559.984 C 1394.481 559.984 1390 555.503 1390 549.984 L 1390 389.984 C 1390 384.465 1394.481 379.984 1400 379.984 Z " fill="none" vector-effect="non-scaling-stroke" stroke-width="5" stroke="rgb(255,153,0)" stroke-linejoin="miter" stroke-linecap="square" stroke-miterlimit="3"/><rect x="1188.9" y="412.005" width="7.04" height="7.598" transform="matrix(-0.003,1,-1,-0.003,1612.333,-775.378)" fill="rgb(255,153,0)"/><rect x="1188.871" y="420.453" width="7.04" height="7.598" transform="matrix(-0.003,1,-1,-0.003,1620.751,-766.876)" fill="rgb(255,153,0)"/><rect x="1179.753" y="420.426" width="7.04" height="7.598" transform="matrix(-0.003,1,-1,-0.003,1611.575,-757.786)" fill="rgb(255,224,176)"/><rect x="1179.724" y="428.874" width="7.04" height="7.598" transform="matrix(-0.003,1,-1,-0.003,1619.994,-749.284)" fill="rgb(255,153,0)"/><rect x="1188.842" y="428.901" width="7.04" height="7.598" transform="matrix(-0.003,1,-1,-0.003,1629.17,-758.374)" fill="rgb(255,190,92)"/><rect x="1170.575" y="437.999" width="7.04" height="7.598" transform="matrix(-0.003,1,-1,-0.003,1619.938,-730.983)" fill="rgb(191,137,55)"/><rect x="1179.666" y="445.769" width="7.04" height="7.598" transform="matrix(-0.003,1,-1,-0.003,1636.831,-732.28)" fill="rgb(255,153,0)"/><rect x="1179.637" y="454.217" width="7.04" height="7.598" transform="matrix(-0.003,1,-1,-0.003,1645.249,-723.778)" fill="rgb(159,112,41)"/><rect x="1179.608" y="462.665" width="7.04" height="7.598" transform="matrix(-0.003,1,-1,-0.003,1653.668,-715.276)" fill="rgb(255,153,0)"/><rect x="1179.579" y="471.113" width="7.04" height="7.598" transform="matrix(-0.003,1,-1,-0.003,1662.086,-706.774)" fill="rgb(255,221,169)"/><rect x="1188.696" y="471.14" width="7.04" height="7.598" transform="matrix(-0.003,1,-1,-0.003,1671.262,-715.865)" fill="rgb(255,153,0)"/><rect x="1179.549" y="479.561" width="7.04" height="7.598" transform="matrix(-0.003,1,-1,-0.003,1670.505,-698.272)" fill="rgb(255,153,0)"/><rect x="1170.432" y="479.534" width="7.04" height="7.598" transform="matrix(-0.003,1,-1,-0.003,1661.329,-689.182)" fill="rgb(255,153,0)"/><rect x="1170.403" y="487.981" width="7.04" height="7.598" transform="matrix(-0.003,1,-1,-0.003,1669.748,-680.68)" fill="rgb(255,153,0)"/><rect x="1188.638" y="488.035" width="7.04" height="7.598" transform="matrix(-0.003,1,-1,-0.003,1688.099,-698.861)" fill="rgb(255,190,92)"/><rect x="1179.491" y="496.456" width="7.04" height="7.598" transform="matrix(-0.003,1,-1,-0.003,1687.342,-681.269)" fill="rgb(193,116,0)"/><rect x="1179.462" y="504.904" width="7.04" height="7.598" transform="matrix(-0.003,1,-1,-0.003,1695.761,-672.767)" fill="rgb(255,153,0)"/><rect x="1170.32" y="511.917" width="7.04" height="7.598" transform="matrix(-0.003,1,-1,-0.003,1693.6,-656.591)" fill="rgb(223,176,105)"/><rect x="1170.291" y="520.365" width="7.04" height="7.598" transform="matrix(-0.003,1,-1,-0.003,1702.019,-648.089)" fill="rgb(255,153,0)"/><rect x="1188.526" y="520.419" width="7.04" height="7.598" transform="matrix(-0.003,1,-1,-0.003,1720.37,-666.27)" fill="rgb(255,171,44)"/><rect x="1188.783" y="445.796" width="7.04" height="7.598" transform="matrix(-0.003,1,-1,-0.003,1646.007,-741.37)" fill="rgb(255,153,0)"/><rect x="1170.519" y="454.19" width="7.04" height="7.598" transform="matrix(-0.003,1,-1,-0.003,1636.073,-714.688)" fill="rgb(255,153,0)"/><rect x="1170.607" y="428.847" width="7.04" height="7.598" transform="matrix(-0.003,1,-1,-0.003,1610.818,-740.193)" fill="rgb(255,195,106)"/><rect x="1179.782" y="411.978" width="7.04" height="7.598" transform="matrix(-0.003,1,-1,-0.003,1603.157,-766.288)" fill="rgb(255,153,0)"/><rect x="1170.665" y="411.951" width="7.04" height="7.598" transform="matrix(-0.003,1,-1,-0.003,1593.981,-757.197)" fill="rgb(255,153,0)"/><path d=" M 1648 436.234 L 1648 464.984 C 1648 467.743 1650.24 469.984 1653 469.984 L 1683 469.984 C 1685.76 469.984 1688 467.743 1688 464.984 L 1688 436.234 C 1688 433.474 1685.76 431.234 1683 431.234 L 1653 431.234 C 1650.24 431.234 1648 433.474 1648 436.234 Z " fill="rgb(255,153,0)"/><path d=" M 1648 480.57 L 1648 509.32 C 1648 512.08 1650.24 514.32 1653 514.32 L 1683 514.32 C 1685.76 514.32 1688 512.08 1688 509.32 L 1688 480.57 C 1688 477.811 1685.76 475.57 1683 475.57 L 1653 475.57 C 1650.24 475.57 1648 477.811 1648 480.57 Z " fill="rgb(0,102,255)" fill-opacity="0.28" vector-effect="non-scaling-stroke" stroke-width="2" stroke="rgb(0,102,255)" stroke-linejoin="miter" stroke-linecap="square" stroke-miterlimit="3"/><path d=" M 1744.968 480.57 L 1744.968 509.32 C 1744.968 512.08 1747.208 514.32 1749.968 514.32 L 1779.968 514.32 C 1782.728 514.32 1784.968 512.08 1784.968 509.32 L 1784.968 480.57 C 1784.968 477.811 1782.728 475.57 1779.968 475.57 L 1749.968 475.57 C 1747.208 475.57 1744.968 477.811 1744.968 480.57 Z " fill="rgb(0,102,255)" fill-opacity="0.28" vector-effect="non-scaling-stroke" stroke-width="2" stroke="rgb(0,102,255)" stroke-linejoin="miter" stroke-linecap="square" stroke-miterlimit="3"/><path d=" M 1698 480.57 L 1698 509.32 C 1698 512.08 1700.24 514.32 1703 514.32 L 1733 514.32 C 1735.76 514.32 1738 512.08 1738 509.32 L 1738 480.57 C 1738 477.811 1735.76 475.57 1733 475.57 L 1703 475.57 C 1700.24 475.57 1698 477.811 1698 480.57 Z " fill="rgb(255,153,0)" fill-opacity="0.23" vector-effect="non-scaling-stroke" stroke-width="2" stroke="rgb(255,153,0)" stroke-linejoin="miter" stroke-linecap="square" stroke-miterlimit="3"/><path d=" M 1698 456.324 L 1698 466.675 C 1698 468.501 1699.483 469.984 1701.309 469.984 L 1734.691 469.984 C 1736.517 469.984 1738 468.501 1738 466.675 L 1738 456.324 C 1738 454.498 1736.517 453.016 1734.691 453.016 L 1701.309 453.016 C 1699.483 453.016 1698 454.498 1698 456.324 Z " fill="rgb(255,153,0)"/><path d=" M 1750.829 469.984 L 1762.139 469.984 C 1763.701 469.984 1764.968 468.716 1764.968 467.155 L 1764.968 443.579 C 1764.968 442.017 1763.701 440.75 1762.139 440.75 L 1750.829 440.75 C 1749.267 440.75 1748 442.017 1748 443.579 L 1748 467.155 C 1748 468.716 1749.267 469.984 1750.829 469.984 Z " fill="rgb(255,153,0)"/><path d=" M 1770.829 469.984 L 1782.139 469.984 C 1783.701 469.984 1784.968 468.716 1784.968 467.155 L 1784.968 443.579 C 1784.968 442.017 1783.701 440.75 1782.139 440.75 L 1770.829 440.75 C 1769.267 440.75 1768 442.017 1768 443.579 L 1768 467.155 C 1768 468.716 1769.267 469.984 1770.829 469.984 Z " fill="rgb(255,153,0)"/><path d=" M 1698 435.309 L 1698 445.659 C 1698 447.485 1699.483 448.968 1701.309 448.968 L 1734.691 448.968 C 1736.517 448.968 1738 447.485 1738 445.659 L 1738 435.309 C 1738 433.483 1736.517 432 1734.691 432 L 1701.309 432 C 1699.483 432 1698 433.483 1698 435.309 Z " fill="rgb(142,133,139)"/><path d=" M 1748 434.275 L 1748 437.029 C 1748 438.138 1748.9 439.038 1750.009 439.038 L 1782.959 439.038 C 1784.068 439.038 1784.968 438.138 1784.968 437.029 L 1784.968 434.275 C 1784.968 433.166 1784.068 432.266 1782.959 432.266 L 1750.009 432.266 C 1748.9 432.266 1748 433.166 1748 434.275 Z " fill="rgb(142,133,139)"/><path d=" M 1653 455.216 L 1653 460.816 C 1653 462.03 1653.986 463.016 1655.2 463.016 L 1680.8 463.016 C 1682.014 463.016 1683 462.03 1683 460.816 L 1683 455.216 C 1683 454.002 1682.014 453.016 1680.8 453.016 L 1655.2 453.016 C 1653.986 453.016 1653 454.002 1653 455.216 Z " fill="rgb(0,102,255)"/><text transform="matrix(1,0,0,1,1653.62,510.274)" style="font-family:'Zeta Reticuli';font-weight:400;font-size:40px;font-style:normal;fill:#ffffff;stroke:none;">W</text><text transform="matrix(1,0,0,1,1702.8,510.274)" style="font-family:'Zeta Reticuli';font-weight:400;font-size:40px;font-style:normal;fill:#ff9900;stroke:none;">S</text><text transform="matrix(1,0,0,1,1749.768,510.274)" style="font-family:'Zeta Reticuli';font-weight:400;font-size:40px;font-style:normal;fill:#ffffff;stroke:none;">Q</text></g></svg>